<svg xmlns="http://www.w3.org/2000/svg" xmlns:xlink="http://www.w3.org/1999/xlink" width="500" zoomAndPan="magnify" viewBox="0 0 375 374.999991" height="500" preserveAspectRatio="xMidYMid meet" version="1.0"><defs><filter x="0%" y="0%" width="100%" height="100%" id="9b822eed99"><feColorMatrix values="0 0 0 0 1 0 0 0 0 1 0 0 0 0 1 0 0 0 1 0" color-interpolation-filters="sRGB"/></filter><g/><mask id="07920c2a6b"><g filter="url(#9b822eed99)"><rect x="-37.5" width="450" fill="#000000" y="-37.499999" height="449.999989" fill-opacity="0.8"/></g></mask><clipPath id="a75ae589ce"><path d="M 0.382812 0.9375 L 78.617188 0.9375 L 78.617188 160.457031 L 0.382812 160.457031 Z M 0.382812 0.9375 " clip-rule="nonzero"/></clipPath><clipPath id="018f27d17d"><path d="M 39.5 0.9375 C 49.875 0.9375 59.824219 5.058594 67.160156 12.394531 C 74.496094 19.730469 78.617188 29.679688 78.617188 40.050781 L 78.617188 121.316406 C 78.617188 131.6875 74.496094 141.636719 67.160156 148.972656 C 59.824219 156.308594 49.875 160.429688 39.5 160.429688 C 29.125 160.429688 19.175781 156.308594 11.839844 148.972656 C 4.503906 141.636719 0.382812 131.6875 0.382812 121.316406 L 0.382812 40.050781 C 0.382812 29.679688 4.503906 19.730469 11.839844 12.394531 C 19.175781 5.058594 29.125 0.9375 39.5 0.9375 Z M 39.5 0.9375 " clip-rule="nonzero"/></clipPath><clipPath id="7cfc6e1b47"><rect x="0" width="79" y="0" height="161"/></clipPath><mask id="1d218f472b"><g filter="url(#9b822eed99)"><rect x="-37.5" width="450" fill="#000000" y="-37.499999" height="449.999989" fill-opacity="0.8"/></g></mask><clipPath id="68203d5016"><path d="M 0.265625 0.90625 L 78.5 0.90625 L 78.5 120.699219 L 0.265625 120.699219 Z M 0.265625 0.90625 " clip-rule="nonzero"/></clipPath><clipPath id="b14e49ee5b"><path d="M 39.382812 0.90625 C 49.757812 0.90625 59.707031 5.027344 67.042969 12.363281 C 74.378906 19.699219 78.5 29.648438 78.5 40.023438 L 78.5 81.34375 C 78.5 91.71875 74.378906 101.667969 67.042969 109.003906 C 59.707031 116.339844 49.757812 120.460938 39.382812 120.460938 C 29.007812 120.460938 19.058594 116.339844 11.722656 109.003906 C 4.386719 101.667969 0.265625 91.71875 0.265625 81.34375 L 0.265625 40.023438 C 0.265625 29.648438 4.386719 19.699219 11.722656 12.363281 C 19.058594 5.027344 29.007812 0.90625 39.382812 0.90625 Z M 39.382812 0.90625 " clip-rule="nonzero"/></clipPath><clipPath id="cce08a0cf0"><rect x="0" width="79" y="0" height="121"/></clipPath><mask id="abf38ebc6d"><g filter="url(#9b822eed99)"><rect x="-37.5" width="450" fill="#000000" y="-37.499999" height="449.999989" fill-opacity="0.8"/></g></mask><clipPath id="ebe3527365"><path d="M 0.617188 0.191406 L 83.601562 0.191406 L 83.601562 83.175781 L 0.617188 83.175781 Z M 0.617188 0.191406 " clip-rule="nonzero"/></clipPath><clipPath id="91b73019e0"><path d="M 42.109375 0.191406 C 19.191406 0.191406 0.617188 18.769531 0.617188 41.683594 C 0.617188 64.597656 19.191406 83.175781 42.109375 83.175781 C 65.023438 83.175781 83.601562 64.597656 83.601562 41.683594 C 83.601562 18.769531 65.023438 0.191406 42.109375 0.191406 Z M 42.109375 0.191406 " clip-rule="nonzero"/></clipPath><clipPath id="04de026d04"><rect x="0" width="84" y="0" height="84"/></clipPath><mask id="573e7ae9a8"><g filter="url(#9b822eed99)"><rect x="-37.5" width="450" fill="#000000" y="-37.499999" height="449.999989" fill-opacity="0.8"/></g></mask><clipPath id="491d46a8fd"><path d="M 0.5 0.90625 L 78.734375 0.90625 L 78.734375 120.699219 L 0.5 120.699219 Z M 0.5 0.90625 " clip-rule="nonzero"/></clipPath><clipPath id="999bd40237"><path d="M 39.617188 0.90625 C 49.992188 0.90625 59.941406 5.027344 67.277344 12.363281 C 74.613281 19.699219 78.734375 29.648438 78.734375 40.023438 L 78.734375 81.34375 C 78.734375 91.71875 74.613281 101.667969 67.277344 109.003906 C 59.941406 116.339844 49.992188 120.460938 39.617188 120.460938 C 29.242188 120.460938 19.292969 116.339844 11.957031 109.003906 C 4.621094 101.667969 0.5 91.71875 0.5 81.34375 L 0.5 40.023438 C 0.5 29.648438 4.621094 19.699219 11.957031 12.363281 C 19.292969 5.027344 29.242188 0.90625 39.617188 0.90625 Z M 39.617188 0.90625 " clip-rule="nonzero"/></clipPath><clipPath id="1f28993c54"><rect x="0" width="79" y="0" height="121"/></clipPath><mask id="77b43ec325"><g filter="url(#9b822eed99)"><rect x="-37.5" width="450" fill="#000000" y="-37.499999" height="449.999989" fill-opacity="0.8"/></g></mask><clipPath id="102071cb63"><path d="M 0.398438 0.191406 L 83.382812 0.191406 L 83.382812 83.175781 L 0.398438 83.175781 Z M 0.398438 0.191406 " clip-rule="nonzero"/></clipPath><clipPath id="f070d3f8e6"><path d="M 41.890625 0.191406 C 18.976562 0.191406 0.398438 18.769531 0.398438 41.683594 C 0.398438 64.597656 18.976562 83.175781 41.890625 83.175781 C 64.808594 83.175781 83.382812 64.597656 83.382812 41.683594 C 83.382812 18.769531 64.808594 0.191406 41.890625 0.191406 Z M 41.890625 0.191406 " clip-rule="nonzero"/></clipPath><clipPath id="85ea98a413"><rect x="0" width="84" y="0" height="84"/></clipPath></defs><g mask="url(#07920c2a6b)"><g transform="matrix(1, 0, 0, 1, 148, 69)"><g clip-path="url(#7cfc6e1b47)"><g clip-path="url(#a75ae589ce)"><g clip-path="url(#018f27d17d)"><path fill="#f75171" d="M 0.382812 0.9375 L 78.617188 0.9375 L 78.617188 160.457031 L 0.382812 160.457031 Z M 0.382812 0.9375 " fill-opacity="1" fill-rule="nonzero"/></g></g></g></g></g><g mask="url(#1d218f472b)"><g transform="matrix(1, 0, 0, 1, 109, 89)"><g clip-path="url(#cce08a0cf0)"><g clip-path="url(#68203d5016)"><g clip-path="url(#b14e49ee5b)"><path fill="#ef9c53" d="M 0.265625 0.90625 L 78.5 0.90625 L 78.5 120.394531 L 0.265625 120.394531 Z M 0.265625 0.90625 " fill-opacity="1" fill-rule="nonzero"/></g></g></g></g></g><g mask="url(#abf38ebc6d)"><g transform="matrix(1, 0, 0, 1, 226, 108)"><g clip-path="url(#04de026d04)"><g clip-path="url(#ebe3527365)"><g clip-path="url(#91b73019e0)"><path fill="#5d00a8" d="M 0.617188 0.191406 L 83.601562 0.191406 L 83.601562 83.175781 L 0.617188 83.175781 Z M 0.617188 0.191406 " fill-opacity="1" fill-rule="nonzero"/></g></g></g></g></g><g mask="url(#573e7ae9a8)"><g transform="matrix(1, 0, 0, 1, 187, 89)"><g clip-path="url(#1f28993c54)"><g clip-path="url(#491d46a8fd)"><g clip-path="url(#999bd40237)"><path fill="#8b0090" d="M 0.5 0.90625 L 78.734375 0.90625 L 78.734375 120.394531 L 0.5 120.394531 Z M 0.5 0.90625 " fill-opacity="1" fill-rule="nonzero"/></g></g></g></g></g><g mask="url(#77b43ec325)"><g transform="matrix(1, 0, 0, 1, 65, 108)"><g clip-path="url(#85ea98a413)"><g clip-path="url(#102071cb63)"><g clip-path="url(#f070d3f8e6)"><path fill="#f6bd4f" d="M 0.398438 0.191406 L 83.382812 0.191406 L 83.382812 83.175781 L 0.398438 83.175781 Z M 0.398438 0.191406 " fill-opacity="1" fill-rule="nonzero"/></g></g></g></g></g><g fill="#f1efe7" fill-opacity="1"><g transform="translate(129.90336, 270.719279)"><g><path d="M 18.875 0 L 17.875 -12.4375 L 17.75 -12.4375 L 13.453125 -0.125 L 10.609375 -0.125 L 6.3125 -12.4375 L 6.1875 -12.4375 L 5.1875 0 L 0.40625 0 L 2.296875 -20.984375 L 7.375 -20.984375 L 12.03125 -8.875 L 16.6875 -20.984375 L 21.78125 -20.984375 L 23.65625 0 Z M 18.875 0 "/></g></g></g><g fill="#f1efe7" fill-opacity="1"><g transform="translate(155.23197, 270.719279)"><g><path d="M 6.3125 -20.984375 L 6.3125 0 L 1.53125 0 L 1.53125 -20.984375 Z M 6.3125 -20.984375 "/></g></g></g><g fill="#f1efe7" fill-opacity="1"><g transform="translate(164.336451, 270.719279)"><g><path d="M 1.53125 -20.984375 L 9.03125 -20.984375 C 11.050781 -20.984375 12.695312 -20.441406 13.96875 -19.359375 C 15.238281 -18.285156 15.875 -16.75 15.875 -14.75 C 15.875 -13.207031 15.488281 -11.914062 14.71875 -10.875 C 13.945312 -9.832031 12.898438 -9.097656 11.578125 -8.671875 L 18.796875 0 L 12.71875 0 L 6.3125 -8.296875 L 6.3125 0 L 1.53125 0 Z M 6.3125 -11.671875 L 6.875 -11.671875 C 7.3125 -11.671875 7.679688 -11.679688 7.984375 -11.703125 C 8.285156 -11.722656 8.628906 -11.78125 9.015625 -11.875 C 9.410156 -11.976562 9.726562 -12.125 9.96875 -12.3125 C 10.207031 -12.5 10.410156 -12.769531 10.578125 -13.125 C 10.753906 -13.476562 10.84375 -13.910156 10.84375 -14.421875 C 10.84375 -14.929688 10.753906 -15.363281 10.578125 -15.71875 C 10.410156 -16.070312 10.207031 -16.34375 9.96875 -16.53125 C 9.726562 -16.71875 9.410156 -16.863281 9.015625 -16.96875 C 8.628906 -17.070312 8.285156 -17.128906 7.984375 -17.140625 C 7.679688 -17.160156 7.3125 -17.171875 6.875 -17.171875 L 6.3125 -17.171875 Z M 6.3125 -11.671875 "/></g></g></g><g fill="#f1efe7" fill-opacity="1"><g transform="translate(183.816239, 270.719279)"><g><path d="M 1.53125 -20.984375 L 9.03125 -20.984375 C 11.050781 -20.984375 12.695312 -20.441406 13.96875 -19.359375 C 15.238281 -18.285156 15.875 -16.75 15.875 -14.75 C 15.875 -13.207031 15.488281 -11.914062 14.71875 -10.875 C 13.945312 -9.832031 12.898438 -9.097656 11.578125 -8.671875 L 18.796875 0 L 12.71875 0 L 6.3125 -8.296875 L 6.3125 0 L 1.53125 0 Z M 6.3125 -11.671875 L 6.875 -11.671875 C 7.3125 -11.671875 7.679688 -11.679688 7.984375 -11.703125 C 8.285156 -11.722656 8.628906 -11.78125 9.015625 -11.875 C 9.410156 -11.976562 9.726562 -12.125 9.96875 -12.3125 C 10.207031 -12.5 10.410156 -12.769531 10.578125 -13.125 C 10.753906 -13.476562 10.84375 -13.910156 10.84375 -14.421875 C 10.84375 -14.929688 10.753906 -15.363281 10.578125 -15.71875 C 10.410156 -16.070312 10.207031 -16.34375 9.96875 -16.53125 C 9.726562 -16.71875 9.410156 -16.863281 9.015625 -16.96875 C 8.628906 -17.070312 8.285156 -17.128906 7.984375 -17.140625 C 7.679688 -17.160156 7.3125 -17.171875 6.875 -17.171875 L 6.3125 -17.171875 Z M 6.3125 -11.671875 "/></g></g></g><g fill="#f1efe7" fill-opacity="1"><g transform="translate(203.296028, 270.719279)"><g><path d="M 0.578125 -10.5 C 0.578125 -13.539062 1.613281 -16.113281 3.6875 -18.21875 C 5.757812 -20.320312 8.253906 -21.375 11.171875 -21.375 C 14.097656 -21.375 16.585938 -20.320312 18.640625 -18.21875 C 20.691406 -16.125 21.71875 -13.550781 21.71875 -10.5 C 21.71875 -7.4375 20.707031 -4.859375 18.6875 -2.765625 C 16.675781 -0.671875 14.171875 0.375 11.171875 0.375 C 8.097656 0.375 5.5625 -0.660156 3.5625 -2.734375 C 1.570312 -4.804688 0.578125 -7.394531 0.578125 -10.5 Z M 5.75 -10.5 C 5.75 -9.40625 5.914062 -8.398438 6.25 -7.484375 C 6.59375 -6.578125 7.1875 -5.8125 8.03125 -5.1875 C 8.882812 -4.5625 9.929688 -4.25 11.171875 -4.25 C 12.953125 -4.25 14.296875 -4.859375 15.203125 -6.078125 C 16.109375 -7.296875 16.5625 -8.769531 16.5625 -10.5 C 16.5625 -12.21875 16.097656 -13.691406 15.171875 -14.921875 C 14.242188 -16.148438 12.910156 -16.765625 11.171875 -16.765625 C 9.441406 -16.765625 8.101562 -16.148438 7.15625 -14.921875 C 6.21875 -13.691406 5.75 -12.21875 5.75 -10.5 Z M 5.75 -10.5 "/></g></g></g><g fill="#f1efe7" fill-opacity="1"><g transform="translate(226.869991, 270.719279)"><g><path d="M 1.53125 -20.984375 L 9.03125 -20.984375 C 11.050781 -20.984375 12.695312 -20.441406 13.96875 -19.359375 C 15.238281 -18.285156 15.875 -16.75 15.875 -14.75 C 15.875 -13.207031 15.488281 -11.914062 14.71875 -10.875 C 13.945312 -9.832031 12.898438 -9.097656 11.578125 -8.671875 L 18.796875 0 L 12.71875 0 L 6.3125 -8.296875 L 6.3125 0 L 1.53125 0 Z M 6.3125 -11.671875 L 6.875 -11.671875 C 7.3125 -11.671875 7.679688 -11.679688 7.984375 -11.703125 C 8.285156 -11.722656 8.628906 -11.78125 9.015625 -11.875 C 9.410156 -11.976562 9.726562 -12.125 9.96875 -12.3125 C 10.207031 -12.5 10.410156 -12.769531 10.578125 -13.125 C 10.753906 -13.476562 10.84375 -13.910156 10.84375 -14.421875 C 10.84375 -14.929688 10.753906 -15.363281 10.578125 -15.71875 C 10.410156 -16.070312 10.207031 -16.34375 9.96875 -16.53125 C 9.726562 -16.71875 9.410156 -16.863281 9.015625 -16.96875 C 8.628906 -17.070312 8.285156 -17.128906 7.984375 -17.140625 C 7.679688 -17.160156 7.3125 -17.171875 6.875 -17.171875 L 6.3125 -17.171875 Z M 6.3125 -11.671875 "/></g></g></g><g fill="#f1efe7" fill-opacity="1"><g transform="translate(60.225952, 300.662354)"><g><path d="M 9.46875 0 L 6.90625 -3.59375 C 6.625 -3.5625 6.328125 -3.546875 6.015625 -3.546875 L 3.015625 -3.546875 L 3.015625 0 L 1.828125 0 L 1.828125 -11.203125 L 6.015625 -11.203125 C 7.441406 -11.203125 8.5625 -10.859375 9.375 -10.171875 C 10.1875 -9.492188 10.59375 -8.554688 10.59375 -7.359375 C 10.59375 -6.484375 10.367188 -5.742188 9.921875 -5.140625 C 9.484375 -4.535156 8.851562 -4.101562 8.03125 -3.84375 L 10.765625 0 Z M 5.984375 -4.5625 C 7.085938 -4.5625 7.929688 -4.804688 8.515625 -5.296875 C 9.109375 -5.785156 9.40625 -6.472656 9.40625 -7.359375 C 9.40625 -8.265625 9.109375 -8.957031 8.515625 -9.4375 C 7.929688 -9.925781 7.085938 -10.171875 5.984375 -10.171875 L 3.015625 -10.171875 L 3.015625 -4.5625 Z M 5.984375 -4.5625 "/></g></g></g><g fill="#f1efe7" fill-opacity="1"><g transform="translate(71.791179, 300.662354)"><g><path d="M 8.90625 -3.859375 L 1.875 -3.859375 C 1.9375 -2.984375 2.269531 -2.273438 2.875 -1.734375 C 3.488281 -1.191406 4.257812 -0.921875 5.1875 -0.921875 C 5.707031 -0.921875 6.1875 -1.015625 6.625 -1.203125 C 7.0625 -1.390625 7.441406 -1.664062 7.765625 -2.03125 L 8.40625 -1.296875 C 8.03125 -0.847656 7.5625 -0.503906 7 -0.265625 C 6.4375 -0.0351562 5.820312 0.078125 5.15625 0.078125 C 4.289062 0.078125 3.523438 -0.101562 2.859375 -0.46875 C 2.191406 -0.84375 1.671875 -1.351562 1.296875 -2 C 0.921875 -2.644531 0.734375 -3.378906 0.734375 -4.203125 C 0.734375 -5.023438 0.910156 -5.757812 1.265625 -6.40625 C 1.628906 -7.0625 2.125 -7.570312 2.75 -7.9375 C 3.375 -8.300781 4.070312 -8.484375 4.84375 -8.484375 C 5.625 -8.484375 6.320312 -8.300781 6.9375 -7.9375 C 7.5625 -7.570312 8.046875 -7.066406 8.390625 -6.421875 C 8.742188 -5.773438 8.921875 -5.035156 8.921875 -4.203125 Z M 4.84375 -7.5 C 4.03125 -7.5 3.347656 -7.238281 2.796875 -6.71875 C 2.253906 -6.207031 1.945312 -5.535156 1.875 -4.703125 L 7.84375 -4.703125 C 7.769531 -5.535156 7.457031 -6.207031 6.90625 -6.71875 C 6.351562 -7.238281 5.664062 -7.5 4.84375 -7.5 Z M 4.84375 -7.5 "/></g></g></g><g fill="#f1efe7" fill-opacity="1"><g transform="translate(81.452853, 300.662354)"><g><path d="M 4.375 -10.984375 C 3.875 -10.984375 3.5 -10.847656 3.25 -10.578125 C 3 -10.316406 2.875 -9.925781 2.875 -9.40625 L 2.875 -8.421875 L 5.46875 -8.421875 L 5.46875 -7.453125 L 2.90625 -7.453125 L 2.90625 0 L 1.78125 0 L 1.78125 -7.453125 L 0.265625 -7.453125 L 0.265625 -8.421875 L 1.78125 -8.421875 L 1.78125 -9.453125 C 1.78125 -10.222656 2 -10.832031 2.4375 -11.28125 C 2.882812 -11.726562 3.507812 -11.953125 4.3125 -11.953125 C 4.632812 -11.953125 4.945312 -11.90625 5.25 -11.8125 C 5.550781 -11.726562 5.800781 -11.597656 6 -11.421875 L 5.609375 -10.578125 C 5.285156 -10.847656 4.875 -10.984375 4.375 -10.984375 Z M 4.375 -10.984375 "/></g></g></g><g fill="#f1efe7" fill-opacity="1"><g transform="translate(86.875555, 300.662354)"><g><path d="M 1.578125 -11.875 L 2.71875 -11.875 L 2.71875 0 L 1.578125 0 Z M 1.578125 -11.875 "/></g></g></g><g fill="#f1efe7" fill-opacity="1"><g transform="translate(91.178522, 300.662354)"><g><path d="M 8.90625 -3.859375 L 1.875 -3.859375 C 1.9375 -2.984375 2.269531 -2.273438 2.875 -1.734375 C 3.488281 -1.191406 4.257812 -0.921875 5.1875 -0.921875 C 5.707031 -0.921875 6.1875 -1.015625 6.625 -1.203125 C 7.0625 -1.390625 7.441406 -1.664062 7.765625 -2.03125 L 8.40625 -1.296875 C 8.03125 -0.847656 7.5625 -0.503906 7 -0.265625 C 6.4375 -0.0351562 5.820312 0.078125 5.15625 0.078125 C 4.289062 0.078125 3.523438 -0.101562 2.859375 -0.46875 C 2.191406 -0.84375 1.671875 -1.351562 1.296875 -2 C 0.921875 -2.644531 0.734375 -3.378906 0.734375 -4.203125 C 0.734375 -5.023438 0.910156 -5.757812 1.265625 -6.40625 C 1.628906 -7.0625 2.125 -7.570312 2.75 -7.9375 C 3.375 -8.300781 4.070312 -8.484375 4.84375 -8.484375 C 5.625 -8.484375 6.320312 -8.300781 6.9375 -7.9375 C 7.5625 -7.570312 8.046875 -7.066406 8.390625 -6.421875 C 8.742188 -5.773438 8.921875 -5.035156 8.921875 -4.203125 Z M 4.84375 -7.5 C 4.03125 -7.5 3.347656 -7.238281 2.796875 -6.71875 C 2.253906 -6.207031 1.945312 -5.535156 1.875 -4.703125 L 7.84375 -4.703125 C 7.769531 -5.535156 7.457031 -6.207031 6.90625 -6.71875 C 6.351562 -7.238281 5.664062 -7.5 4.84375 -7.5 Z M 4.84375 -7.5 "/></g></g></g><g fill="#f1efe7" fill-opacity="1"><g transform="translate(100.840196, 300.662354)"><g><path d="M 5.078125 0.078125 C 4.242188 0.078125 3.5 -0.101562 2.84375 -0.46875 C 2.1875 -0.832031 1.671875 -1.335938 1.296875 -1.984375 C 0.921875 -2.640625 0.734375 -3.378906 0.734375 -4.203125 C 0.734375 -5.023438 0.921875 -5.757812 1.296875 -6.40625 C 1.671875 -7.0625 2.1875 -7.570312 2.84375 -7.9375 C 3.5 -8.300781 4.242188 -8.484375 5.078125 -8.484375 C 5.796875 -8.484375 6.441406 -8.335938 7.015625 -8.046875 C 7.585938 -7.765625 8.039062 -7.351562 8.375 -6.8125 L 7.515625 -6.234375 C 7.242188 -6.648438 6.894531 -6.960938 6.46875 -7.171875 C 6.039062 -7.378906 5.578125 -7.484375 5.078125 -7.484375 C 4.460938 -7.484375 3.910156 -7.347656 3.421875 -7.078125 C 2.941406 -6.804688 2.566406 -6.421875 2.296875 -5.921875 C 2.023438 -5.421875 1.890625 -4.847656 1.890625 -4.203125 C 1.890625 -3.554688 2.023438 -2.984375 2.296875 -2.484375 C 2.566406 -1.992188 2.941406 -1.609375 3.421875 -1.328125 C 3.910156 -1.054688 4.460938 -0.921875 5.078125 -0.921875 C 5.578125 -0.921875 6.039062 -1.019531 6.46875 -1.21875 C 6.894531 -1.425781 7.242188 -1.738281 7.515625 -2.15625 L 8.375 -1.578125 C 8.039062 -1.035156 7.582031 -0.625 7 -0.34375 C 6.425781 -0.0625 5.785156 0.078125 5.078125 0.078125 Z M 5.078125 0.078125 "/></g></g></g><g fill="#f1efe7" fill-opacity="1"><g transform="translate(109.846032, 300.662354)"><g><path d="M 6.015625 -0.515625 C 5.804688 -0.316406 5.539062 -0.164062 5.21875 -0.0625 C 4.90625 0.03125 4.578125 0.078125 4.234375 0.078125 C 3.453125 0.078125 2.847656 -0.132812 2.421875 -0.5625 C 1.992188 -0.988281 1.78125 -1.59375 1.78125 -2.375 L 1.78125 -7.453125 L 0.265625 -7.453125 L 0.265625 -8.421875 L 1.78125 -8.421875 L 1.78125 -10.25 L 2.90625 -10.25 L 2.90625 -8.421875 L 5.46875 -8.421875 L 5.46875 -7.453125 L 2.90625 -7.453125 L 2.90625 -2.4375 C 2.90625 -1.9375 3.03125 -1.550781 3.28125 -1.28125 C 3.53125 -1.019531 3.894531 -0.890625 4.375 -0.890625 C 4.601562 -0.890625 4.828125 -0.925781 5.046875 -1 C 5.265625 -1.082031 5.453125 -1.191406 5.609375 -1.328125 Z M 6.015625 -0.515625 "/></g></g></g><g fill="#f1efe7" fill-opacity="1"><g transform="translate(116.340474, 300.662354)"><g><path d="M 1.578125 -8.421875 L 2.71875 -8.421875 L 2.71875 0 L 1.578125 0 Z M 2.15625 -10.25 C 1.914062 -10.25 1.71875 -10.328125 1.5625 -10.484375 C 1.40625 -10.648438 1.328125 -10.847656 1.328125 -11.078125 C 1.328125 -11.285156 1.40625 -11.46875 1.5625 -11.625 C 1.71875 -11.789062 1.914062 -11.875 2.15625 -11.875 C 2.382812 -11.875 2.578125 -11.796875 2.734375 -11.640625 C 2.898438 -11.484375 2.984375 -11.300781 2.984375 -11.09375 C 2.984375 -10.851562 2.898438 -10.648438 2.734375 -10.484375 C 2.578125 -10.328125 2.382812 -10.25 2.15625 -10.25 Z M 2.15625 -10.25 "/></g></g></g><g fill="#f1efe7" fill-opacity="1"><g transform="translate(120.64344, 300.662354)"><g><path d="M 5.875 -8.484375 C 6.925781 -8.484375 7.765625 -8.175781 8.390625 -7.5625 C 9.015625 -6.945312 9.328125 -6.050781 9.328125 -4.875 L 9.328125 0 L 8.1875 0 L 8.1875 -4.765625 C 8.1875 -5.640625 7.96875 -6.304688 7.53125 -6.765625 C 7.09375 -7.222656 6.46875 -7.453125 5.65625 -7.453125 C 4.75 -7.453125 4.03125 -7.179688 3.5 -6.640625 C 2.976562 -6.109375 2.71875 -5.367188 2.71875 -4.421875 L 2.71875 0 L 1.578125 0 L 1.578125 -8.421875 L 2.671875 -8.421875 L 2.671875 -6.859375 C 2.984375 -7.367188 3.410156 -7.765625 3.953125 -8.046875 C 4.503906 -8.335938 5.144531 -8.484375 5.875 -8.484375 Z M 5.875 -8.484375 "/></g></g></g><g fill="#f1efe7" fill-opacity="1"><g transform="translate(131.472835, 300.662354)"><g><path d="M 9.375 -8.421875 L 9.375 -1.03125 C 9.375 0.40625 9.023438 1.46875 8.328125 2.15625 C 7.628906 2.84375 6.578125 3.1875 5.171875 3.1875 C 4.390625 3.1875 3.648438 3.070312 2.953125 2.84375 C 2.253906 2.613281 1.6875 2.296875 1.25 1.890625 L 1.828125 1.03125 C 2.234375 1.382812 2.722656 1.660156 3.296875 1.859375 C 3.878906 2.066406 4.492188 2.171875 5.140625 2.171875 C 6.203125 2.171875 6.984375 1.921875 7.484375 1.421875 C 7.984375 0.929688 8.234375 0.164062 8.234375 -0.875 L 8.234375 -1.953125 C 7.890625 -1.421875 7.429688 -1.015625 6.859375 -0.734375 C 6.285156 -0.453125 5.648438 -0.3125 4.953125 -0.3125 C 4.171875 -0.3125 3.457031 -0.484375 2.8125 -0.828125 C 2.164062 -1.179688 1.65625 -1.671875 1.28125 -2.296875 C 0.914062 -2.921875 0.734375 -3.628906 0.734375 -4.421875 C 0.734375 -5.203125 0.914062 -5.898438 1.28125 -6.515625 C 1.65625 -7.140625 2.160156 -7.625 2.796875 -7.96875 C 3.441406 -8.3125 4.160156 -8.484375 4.953125 -8.484375 C 5.671875 -8.484375 6.316406 -8.335938 6.890625 -8.046875 C 7.472656 -7.753906 7.9375 -7.335938 8.28125 -6.796875 L 8.28125 -8.421875 Z M 5.078125 -1.328125 C 5.679688 -1.328125 6.226562 -1.457031 6.71875 -1.71875 C 7.207031 -1.976562 7.585938 -2.34375 7.859375 -2.8125 C 8.128906 -3.28125 8.265625 -3.816406 8.265625 -4.421875 C 8.265625 -5.015625 8.128906 -5.539062 7.859375 -6 C 7.585938 -6.46875 7.207031 -6.832031 6.71875 -7.09375 C 6.238281 -7.351562 5.691406 -7.484375 5.078125 -7.484375 C 4.460938 -7.484375 3.910156 -7.351562 3.421875 -7.09375 C 2.941406 -6.84375 2.566406 -6.484375 2.296875 -6.015625 C 2.023438 -5.546875 1.890625 -5.015625 1.890625 -4.421875 C 1.890625 -3.816406 2.023438 -3.28125 2.296875 -2.8125 C 2.566406 -2.34375 2.941406 -1.976562 3.421875 -1.71875 C 3.910156 -1.457031 4.460938 -1.328125 5.078125 -1.328125 Z M 5.078125 -1.328125 "/></g></g></g><g fill="#f1efe7" fill-opacity="1"><g transform="translate(142.446196, 300.662354)"><g/></g></g><g fill="#f1efe7" fill-opacity="1"><g transform="translate(146.637194, 300.662354)"><g><path d="M 4 -10.171875 L 0.0625 -10.171875 L 0.0625 -11.203125 L 9.125 -11.203125 L 9.125 -10.171875 L 5.1875 -10.171875 L 5.1875 0 L 4 0 Z M 4 -10.171875 "/></g></g></g><g fill="#f1efe7" fill-opacity="1"><g transform="translate(155.818983, 300.662354)"><g><path d="M 2.671875 -6.765625 C 2.941406 -7.328125 3.335938 -7.753906 3.859375 -8.046875 C 4.390625 -8.335938 5.046875 -8.484375 5.828125 -8.484375 L 5.828125 -7.375 L 5.546875 -7.390625 C 4.660156 -7.390625 3.96875 -7.117188 3.46875 -6.578125 C 2.96875 -6.035156 2.71875 -5.269531 2.71875 -4.28125 L 2.71875 0 L 1.578125 0 L 1.578125 -8.421875 L 2.671875 -8.421875 Z M 2.671875 -6.765625 "/></g></g></g><g fill="#f1efe7" fill-opacity="1"><g transform="translate(162.233442, 300.662354)"><g><path d="M 9.171875 -8.421875 L 9.171875 0 L 8.078125 0 L 8.078125 -1.53125 C 7.773438 -1.019531 7.363281 -0.625 6.84375 -0.34375 C 6.320312 -0.0625 5.726562 0.078125 5.0625 0.078125 C 3.957031 0.078125 3.085938 -0.226562 2.453125 -0.84375 C 1.816406 -1.457031 1.5 -2.351562 1.5 -3.53125 L 1.5 -8.421875 L 2.640625 -8.421875 L 2.640625 -3.640625 C 2.640625 -2.753906 2.859375 -2.082031 3.296875 -1.625 C 3.734375 -1.164062 4.359375 -0.9375 5.171875 -0.9375 C 6.054688 -0.9375 6.753906 -1.207031 7.265625 -1.75 C 7.773438 -2.289062 8.03125 -3.039062 8.03125 -4 L 8.03125 -8.421875 Z M 9.171875 -8.421875 "/></g></g></g><g fill="#f1efe7" fill-opacity="1"><g transform="translate(172.998852, 300.662354)"><g><path d="M 6.015625 -0.515625 C 5.804688 -0.316406 5.539062 -0.164062 5.21875 -0.0625 C 4.90625 0.03125 4.578125 0.078125 4.234375 0.078125 C 3.453125 0.078125 2.847656 -0.132812 2.421875 -0.5625 C 1.992188 -0.988281 1.78125 -1.59375 1.78125 -2.375 L 1.78125 -7.453125 L 0.265625 -7.453125 L 0.265625 -8.421875 L 1.78125 -8.421875 L 1.78125 -10.25 L 2.90625 -10.25 L 2.90625 -8.421875 L 5.46875 -8.421875 L 5.46875 -7.453125 L 2.90625 -7.453125 L 2.90625 -2.4375 C 2.90625 -1.9375 3.03125 -1.550781 3.28125 -1.28125 C 3.53125 -1.019531 3.894531 -0.890625 4.375 -0.890625 C 4.601562 -0.890625 4.828125 -0.925781 5.046875 -1 C 5.265625 -1.082031 5.453125 -1.191406 5.609375 -1.328125 Z M 6.015625 -0.515625 "/></g></g></g><g fill="#f1efe7" fill-opacity="1"><g transform="translate(179.493294, 300.662354)"><g><path d="M 5.875 -8.484375 C 6.925781 -8.484375 7.765625 -8.175781 8.390625 -7.5625 C 9.015625 -6.945312 9.328125 -6.050781 9.328125 -4.875 L 9.328125 0 L 8.1875 0 L 8.1875 -4.765625 C 8.1875 -5.640625 7.96875 -6.304688 7.53125 -6.765625 C 7.09375 -7.222656 6.46875 -7.453125 5.65625 -7.453125 C 4.75 -7.453125 4.03125 -7.179688 3.5 -6.640625 C 2.976562 -6.109375 2.71875 -5.367188 2.71875 -4.421875 L 2.71875 0 L 1.578125 0 L 1.578125 -11.875 L 2.71875 -11.875 L 2.71875 -6.9375 C 3.03125 -7.4375 3.457031 -7.816406 4 -8.078125 C 4.539062 -8.347656 5.164062 -8.484375 5.875 -8.484375 Z M 5.875 -8.484375 "/></g></g></g><g fill="#f1efe7" fill-opacity="1"><g transform="translate(190.322688, 300.662354)"><g/></g></g><g fill="#f1efe7" fill-opacity="1"><g transform="translate(194.513686, 300.662354)"><g><path d="M 1.578125 -8.421875 L 2.71875 -8.421875 L 2.71875 0 L 1.578125 0 Z M 2.15625 -10.25 C 1.914062 -10.25 1.71875 -10.328125 1.5625 -10.484375 C 1.40625 -10.648438 1.328125 -10.847656 1.328125 -11.078125 C 1.328125 -11.285156 1.40625 -11.46875 1.5625 -11.625 C 1.71875 -11.789062 1.914062 -11.875 2.15625 -11.875 C 2.382812 -11.875 2.578125 -11.796875 2.734375 -11.640625 C 2.898438 -11.484375 2.984375 -11.300781 2.984375 -11.09375 C 2.984375 -10.851562 2.898438 -10.648438 2.734375 -10.484375 C 2.578125 -10.328125 2.382812 -10.25 2.15625 -10.25 Z M 2.15625 -10.25 "/></g></g></g><g fill="#f1efe7" fill-opacity="1"><g transform="translate(198.816653, 300.662354)"><g><path d="M 5.875 -8.484375 C 6.925781 -8.484375 7.765625 -8.175781 8.390625 -7.5625 C 9.015625 -6.945312 9.328125 -6.050781 9.328125 -4.875 L 9.328125 0 L 8.1875 0 L 8.1875 -4.765625 C 8.1875 -5.640625 7.96875 -6.304688 7.53125 -6.765625 C 7.09375 -7.222656 6.46875 -7.453125 5.65625 -7.453125 C 4.75 -7.453125 4.03125 -7.179688 3.5 -6.640625 C 2.976562 -6.109375 2.71875 -5.367188 2.71875 -4.421875 L 2.71875 0 L 1.578125 0 L 1.578125 -8.421875 L 2.671875 -8.421875 L 2.671875 -6.859375 C 2.984375 -7.367188 3.410156 -7.765625 3.953125 -8.046875 C 4.503906 -8.335938 5.144531 -8.484375 5.875 -8.484375 Z M 5.875 -8.484375 "/></g></g></g><g fill="#f1efe7" fill-opacity="1"><g transform="translate(209.646048, 300.662354)"><g/></g></g><g fill="#f1efe7" fill-opacity="1"><g transform="translate(213.837045, 300.662354)"><g><path d="M 9.75 -1.03125 L 9.75 0 L 1.828125 0 L 1.828125 -11.203125 L 9.5 -11.203125 L 9.5 -10.171875 L 3.015625 -10.171875 L 3.015625 -6.1875 L 8.796875 -6.1875 L 8.796875 -5.1875 L 3.015625 -5.1875 L 3.015625 -1.03125 Z M 9.75 -1.03125 "/></g></g></g><g fill="#f1efe7" fill-opacity="1"><g transform="translate(224.538472, 300.662354)"><g><path d="M 8.65625 -8.421875 L 4.90625 0 L 3.75 0 L 0.015625 -8.421875 L 1.203125 -8.421875 L 4.359375 -1.25 L 7.53125 -8.421875 Z M 8.65625 -8.421875 "/></g></g></g><g fill="#f1efe7" fill-opacity="1"><g transform="translate(233.208389, 300.662354)"><g><path d="M 8.90625 -3.859375 L 1.875 -3.859375 C 1.9375 -2.984375 2.269531 -2.273438 2.875 -1.734375 C 3.488281 -1.191406 4.257812 -0.921875 5.1875 -0.921875 C 5.707031 -0.921875 6.1875 -1.015625 6.625 -1.203125 C 7.0625 -1.390625 7.441406 -1.664062 7.765625 -2.03125 L 8.40625 -1.296875 C 8.03125 -0.847656 7.5625 -0.503906 7 -0.265625 C 6.4375 -0.0351562 5.820312 0.078125 5.15625 0.078125 C 4.289062 0.078125 3.523438 -0.101562 2.859375 -0.46875 C 2.191406 -0.84375 1.671875 -1.351562 1.296875 -2 C 0.921875 -2.644531 0.734375 -3.378906 0.734375 -4.203125 C 0.734375 -5.023438 0.910156 -5.757812 1.265625 -6.40625 C 1.628906 -7.0625 2.125 -7.570312 2.75 -7.9375 C 3.375 -8.300781 4.070312 -8.484375 4.84375 -8.484375 C 5.625 -8.484375 6.320312 -8.300781 6.9375 -7.9375 C 7.5625 -7.570312 8.046875 -7.066406 8.390625 -6.421875 C 8.742188 -5.773438 8.921875 -5.035156 8.921875 -4.203125 Z M 4.84375 -7.5 C 4.03125 -7.5 3.347656 -7.238281 2.796875 -6.71875 C 2.253906 -6.207031 1.945312 -5.535156 1.875 -4.703125 L 7.84375 -4.703125 C 7.769531 -5.535156 7.457031 -6.207031 6.90625 -6.71875 C 6.351562 -7.238281 5.664062 -7.5 4.84375 -7.5 Z M 4.84375 -7.5 "/></g></g></g><g fill="#f1efe7" fill-opacity="1"><g transform="translate(242.870063, 300.662354)"><g><path d="M 2.671875 -6.765625 C 2.941406 -7.328125 3.335938 -7.753906 3.859375 -8.046875 C 4.390625 -8.335938 5.046875 -8.484375 5.828125 -8.484375 L 5.828125 -7.375 L 5.546875 -7.390625 C 4.660156 -7.390625 3.96875 -7.117188 3.46875 -6.578125 C 2.96875 -6.035156 2.71875 -5.269531 2.71875 -4.28125 L 2.71875 0 L 1.578125 0 L 1.578125 -8.421875 L 2.671875 -8.421875 Z M 2.671875 -6.765625 "/></g></g></g><g fill="#f1efe7" fill-opacity="1"><g transform="translate(249.284522, 300.662354)"><g><path d="M 8.65625 -8.421875 L 4.453125 1.015625 C 4.109375 1.796875 3.710938 2.351562 3.265625 2.6875 C 2.816406 3.019531 2.273438 3.1875 1.640625 3.1875 C 1.242188 3.1875 0.867188 3.117188 0.515625 2.984375 C 0.160156 2.859375 -0.144531 2.671875 -0.40625 2.421875 L 0.125 1.5625 C 0.550781 1.988281 1.0625 2.203125 1.65625 2.203125 C 2.039062 2.203125 2.367188 2.09375 2.640625 1.875 C 2.921875 1.664062 3.175781 1.304688 3.40625 0.796875 L 3.78125 -0.015625 L 0.015625 -8.421875 L 1.203125 -8.421875 L 4.375 -1.265625 L 7.53125 -8.421875 Z M 8.65625 -8.421875 "/></g></g></g><g fill="#f1efe7" fill-opacity="1"><g transform="translate(257.95444, 300.662354)"><g/></g></g><g fill="#f1efe7" fill-opacity="1"><g transform="translate(262.145449, 300.662354)"><g><path d="M 3.015625 -10.171875 L 3.015625 -5.78125 L 8.796875 -5.78125 L 8.796875 -4.75 L 3.015625 -4.75 L 3.015625 0 L 1.828125 0 L 1.828125 -11.203125 L 9.5 -11.203125 L 9.5 -10.171875 Z M 3.015625 -10.171875 "/></g></g></g><g fill="#f1efe7" fill-opacity="1"><g transform="translate(272.27102, 300.662354)"><g><path d="M 2.671875 -6.765625 C 2.941406 -7.328125 3.335938 -7.753906 3.859375 -8.046875 C 4.390625 -8.335938 5.046875 -8.484375 5.828125 -8.484375 L 5.828125 -7.375 L 5.546875 -7.390625 C 4.660156 -7.390625 3.96875 -7.117188 3.46875 -6.578125 C 2.96875 -6.035156 2.71875 -5.269531 2.71875 -4.28125 L 2.71875 0 L 1.578125 0 L 1.578125 -8.421875 L 2.671875 -8.421875 Z M 2.671875 -6.765625 "/></g></g></g><g fill="#f1efe7" fill-opacity="1"><g transform="translate(278.685479, 300.662354)"><g><path d="M 4.53125 -8.484375 C 5.625 -8.484375 6.460938 -8.207031 7.046875 -7.65625 C 7.640625 -7.101562 7.9375 -6.289062 7.9375 -5.21875 L 7.9375 0 L 6.84375 0 L 6.84375 -1.3125 C 6.59375 -0.875 6.21875 -0.53125 5.71875 -0.28125 C 5.21875 -0.0390625 4.628906 0.078125 3.953125 0.078125 C 3.015625 0.078125 2.265625 -0.144531 1.703125 -0.59375 C 1.148438 -1.039062 0.875 -1.632812 0.875 -2.375 C 0.875 -3.082031 1.132812 -3.65625 1.65625 -4.09375 C 2.175781 -4.53125 3 -4.75 4.125 -4.75 L 6.796875 -4.75 L 6.796875 -5.265625 C 6.796875 -5.992188 6.59375 -6.546875 6.1875 -6.921875 C 5.78125 -7.296875 5.191406 -7.484375 4.421875 -7.484375 C 3.878906 -7.484375 3.363281 -7.394531 2.875 -7.21875 C 2.382812 -7.039062 1.960938 -6.800781 1.609375 -6.5 L 1.109375 -7.34375 C 1.535156 -7.707031 2.046875 -7.988281 2.640625 -8.1875 C 3.234375 -8.382812 3.863281 -8.484375 4.53125 -8.484375 Z M 4.125 -0.8125 C 4.769531 -0.8125 5.320312 -0.957031 5.78125 -1.25 C 6.238281 -1.550781 6.578125 -1.976562 6.796875 -2.53125 L 6.796875 -3.90625 L 4.15625 -3.90625 C 2.71875 -3.90625 2 -3.40625 2 -2.40625 C 2 -1.90625 2.1875 -1.515625 2.5625 -1.234375 C 2.9375 -0.953125 3.457031 -0.8125 4.125 -0.8125 Z M 4.125 -0.8125 "/></g></g></g><g fill="#f1efe7" fill-opacity="1"><g transform="translate(288.123215, 300.662354)"><g><path d="M 12.078125 -8.484375 C 13.128906 -8.484375 13.957031 -8.175781 14.5625 -7.5625 C 15.164062 -6.957031 15.46875 -6.0625 15.46875 -4.875 L 15.46875 0 L 14.34375 0 L 14.34375 -4.765625 C 14.34375 -5.640625 14.128906 -6.304688 13.703125 -6.765625 C 13.285156 -7.222656 12.691406 -7.453125 11.921875 -7.453125 C 11.046875 -7.453125 10.359375 -7.179688 9.859375 -6.640625 C 9.359375 -6.109375 9.109375 -5.367188 9.109375 -4.421875 L 9.109375 0 L 7.96875 0 L 7.96875 -4.765625 C 7.96875 -5.640625 7.753906 -6.304688 7.328125 -6.765625 C 6.910156 -7.222656 6.3125 -7.453125 5.53125 -7.453125 C 4.664062 -7.453125 3.976562 -7.179688 3.46875 -6.640625 C 2.96875 -6.109375 2.71875 -5.367188 2.71875 -4.421875 L 2.71875 0 L 1.578125 0 L 1.578125 -8.421875 L 2.671875 -8.421875 L 2.671875 -6.875 C 2.972656 -7.382812 3.390625 -7.78125 3.921875 -8.0625 C 4.453125 -8.34375 5.066406 -8.484375 5.765625 -8.484375 C 6.460938 -8.484375 7.070312 -8.332031 7.59375 -8.03125 C 8.113281 -7.726562 8.5 -7.285156 8.75 -6.703125 C 9.0625 -7.253906 9.503906 -7.6875 10.078125 -8 C 10.660156 -8.320312 11.328125 -8.484375 12.078125 -8.484375 Z M 12.078125 -8.484375 "/></g></g></g><g fill="#f1efe7" fill-opacity="1"><g transform="translate(305.095122, 300.662354)"><g><path d="M 8.90625 -3.859375 L 1.875 -3.859375 C 1.9375 -2.984375 2.269531 -2.273438 2.875 -1.734375 C 3.488281 -1.191406 4.257812 -0.921875 5.1875 -0.921875 C 5.707031 -0.921875 6.1875 -1.015625 6.625 -1.203125 C 7.0625 -1.390625 7.441406 -1.664062 7.765625 -2.03125 L 8.40625 -1.296875 C 8.03125 -0.847656 7.5625 -0.503906 7 -0.265625 C 6.4375 -0.0351562 5.820312 0.078125 5.15625 0.078125 C 4.289062 0.078125 3.523438 -0.101562 2.859375 -0.46875 C 2.191406 -0.84375 1.671875 -1.351562 1.296875 -2 C 0.921875 -2.644531 0.734375 -3.378906 0.734375 -4.203125 C 0.734375 -5.023438 0.910156 -5.757812 1.265625 -6.40625 C 1.628906 -7.0625 2.125 -7.570312 2.75 -7.9375 C 3.375 -8.300781 4.070312 -8.484375 4.84375 -8.484375 C 5.625 -8.484375 6.320312 -8.300781 6.9375 -7.9375 C 7.5625 -7.570312 8.046875 -7.066406 8.390625 -6.421875 C 8.742188 -5.773438 8.921875 -5.035156 8.921875 -4.203125 Z M 4.84375 -7.5 C 4.03125 -7.5 3.347656 -7.238281 2.796875 -6.71875 C 2.253906 -6.207031 1.945312 -5.535156 1.875 -4.703125 L 7.84375 -4.703125 C 7.769531 -5.535156 7.457031 -6.207031 6.90625 -6.71875 C 6.351562 -7.238281 5.664062 -7.5 4.84375 -7.5 Z M 4.84375 -7.5 "/></g></g></g></svg>