<svg xmlns="http://www.w3.org/2000/svg" xmlns:xlink="http://www.w3.org/1999/xlink" width="500" zoomAndPan="magnify" viewBox="0 0 375 374.999991" height="500" preserveAspectRatio="xMidYMid meet" version="1.0"><defs><filter x="0%" y="0%" width="100%" height="100%" id="c0a632a121"><feColorMatrix values="0 0 0 0 1 0 0 0 0 1 0 0 0 0 1 0 0 0 1 0" color-interpolation-filters="sRGB"/></filter><mask id="20ac8a8989"><g filter="url(#c0a632a121)"><rect x="-37.5" width="450" fill="#000000" y="-37.499999" height="449.999989" fill-opacity="0.8"/></g></mask><clipPath id="5d03d889ac"><path d="M 0.382812 0.835938 L 78.617188 0.835938 L 78.617188 160.355469 L 0.382812 160.355469 Z M 0.382812 0.835938 " clip-rule="nonzero"/></clipPath><clipPath id="e3fbf41744"><path d="M 39.5 0.835938 C 49.875 0.835938 59.824219 4.957031 67.160156 12.292969 C 74.496094 19.628906 78.617188 29.578125 78.617188 39.953125 L 78.617188 121.214844 C 78.617188 131.589844 74.496094 141.539062 67.160156 148.875 C 59.824219 156.210938 49.875 160.332031 39.5 160.332031 C 29.125 160.332031 19.175781 156.210938 11.839844 148.875 C 4.503906 141.539062 0.382812 131.589844 0.382812 121.214844 L 0.382812 39.953125 C 0.382812 29.578125 4.503906 19.628906 11.839844 12.292969 C 19.175781 4.957031 29.125 0.835938 39.5 0.835938 Z M 39.5 0.835938 " clip-rule="nonzero"/></clipPath><clipPath id="0bb57ceecd"><rect x="0" width="79" y="0" height="161"/></clipPath><mask id="36daf864ac"><g filter="url(#c0a632a121)"><rect x="-37.5" width="450" fill="#000000" y="-37.499999" height="449.999989" fill-opacity="0.8"/></g></mask><clipPath id="d0b4126cc1"><path d="M 0.265625 0.808594 L 78.5 0.808594 L 78.5 120.601562 L 0.265625 120.601562 Z M 0.265625 0.808594 " clip-rule="nonzero"/></clipPath><clipPath id="87505868c9"><path d="M 39.382812 0.808594 C 49.757812 0.808594 59.707031 4.929688 67.042969 12.265625 C 74.378906 19.601562 78.5 29.550781 78.5 39.921875 L 78.5 81.242188 C 78.5 91.617188 74.378906 101.566406 67.042969 108.902344 C 59.707031 116.238281 49.757812 120.359375 39.382812 120.359375 C 29.007812 120.359375 19.058594 116.238281 11.722656 108.902344 C 4.386719 101.566406 0.265625 91.617188 0.265625 81.242188 L 0.265625 39.921875 C 0.265625 29.550781 4.386719 19.601562 11.722656 12.265625 C 19.058594 4.929688 29.007812 0.808594 39.382812 0.808594 Z M 39.382812 0.808594 " clip-rule="nonzero"/></clipPath><clipPath id="23eff7873e"><rect x="0" width="79" y="0" height="121"/></clipPath><mask id="30271c8d4d"><g filter="url(#c0a632a121)"><rect x="-37.5" width="450" fill="#000000" y="-37.499999" height="449.999989" fill-opacity="0.8"/></g></mask><clipPath id="e7252fec54"><path d="M 0.617188 1.089844 L 83.601562 1.089844 L 83.601562 84.074219 L 0.617188 84.074219 Z M 0.617188 1.089844 " clip-rule="nonzero"/></clipPath><clipPath id="5bf72552cd"><path d="M 42.109375 1.089844 C 19.191406 1.089844 0.617188 19.667969 0.617188 42.582031 C 0.617188 65.5 19.191406 84.074219 42.109375 84.074219 C 65.023438 84.074219 83.601562 65.5 83.601562 42.582031 C 83.601562 19.667969 65.023438 1.089844 42.109375 1.089844 Z M 42.109375 1.089844 " clip-rule="nonzero"/></clipPath><clipPath id="81d3dc3af6"><rect x="0" width="84" y="0" height="85"/></clipPath><mask id="9495f3547d"><g filter="url(#c0a632a121)"><rect x="-37.5" width="450" fill="#000000" y="-37.499999" height="449.999989" fill-opacity="0.8"/></g></mask><clipPath id="3399d65744"><path d="M 0.5 0.808594 L 78.734375 0.808594 L 78.734375 120.601562 L 0.5 120.601562 Z M 0.5 0.808594 " clip-rule="nonzero"/></clipPath><clipPath id="4619b57649"><path d="M 39.617188 0.808594 C 49.992188 0.808594 59.941406 4.929688 67.277344 12.265625 C 74.613281 19.601562 78.734375 29.550781 78.734375 39.921875 L 78.734375 81.242188 C 78.734375 91.617188 74.613281 101.566406 67.277344 108.902344 C 59.941406 116.238281 49.992188 120.359375 39.617188 120.359375 C 29.242188 120.359375 19.292969 116.238281 11.957031 108.902344 C 4.621094 101.566406 0.5 91.617188 0.5 81.242188 L 0.5 39.921875 C 0.5 29.550781 4.621094 19.601562 11.957031 12.265625 C 19.292969 4.929688 29.242188 0.808594 39.617188 0.808594 Z M 39.617188 0.808594 " clip-rule="nonzero"/></clipPath><clipPath id="3bf5305567"><rect x="0" width="79" y="0" height="121"/></clipPath><mask id="8f29853d24"><g filter="url(#c0a632a121)"><rect x="-37.5" width="450" fill="#000000" y="-37.499999" height="449.999989" fill-opacity="0.8"/></g></mask><clipPath id="0689b90ef3"><path d="M 0.398438 1.089844 L 83.382812 1.089844 L 83.382812 84.074219 L 0.398438 84.074219 Z M 0.398438 1.089844 " clip-rule="nonzero"/></clipPath><clipPath id="df4dfa7870"><path d="M 41.890625 1.089844 C 18.976562 1.089844 0.398438 19.667969 0.398438 42.582031 C 0.398438 65.5 18.976562 84.074219 41.890625 84.074219 C 64.808594 84.074219 83.382812 65.5 83.382812 42.582031 C 83.382812 19.667969 64.808594 1.089844 41.890625 1.089844 Z M 41.890625 1.089844 " clip-rule="nonzero"/></clipPath><clipPath id="f2a9751bc4"><rect x="0" width="84" y="0" height="85"/></clipPath></defs><g mask="url(#20ac8a8989)"><g transform="matrix(1, 0, 0, 1, 148, 84)"><g clip-path="url(#0bb57ceecd)"><g clip-path="url(#5d03d889ac)"><g clip-path="url(#e3fbf41744)"><path fill="#f75171" d="M 0.382812 0.835938 L 78.617188 0.835938 L 78.617188 160.355469 L 0.382812 160.355469 Z M 0.382812 0.835938 " fill-opacity="1" fill-rule="nonzero"/></g></g></g></g></g><g mask="url(#36daf864ac)"><g transform="matrix(1, 0, 0, 1, 109, 104)"><g clip-path="url(#23eff7873e)"><g clip-path="url(#d0b4126cc1)"><g clip-path="url(#87505868c9)"><path fill="#ef9c53" d="M 0.265625 0.808594 L 78.5 0.808594 L 78.5 120.296875 L 0.265625 120.296875 Z M 0.265625 0.808594 " fill-opacity="1" fill-rule="nonzero"/></g></g></g></g></g><g mask="url(#30271c8d4d)"><g transform="matrix(1, 0, 0, 1, 226, 122)"><g clip-path="url(#81d3dc3af6)"><g clip-path="url(#e7252fec54)"><g clip-path="url(#5bf72552cd)"><path fill="#5d00a8" d="M 0.617188 1.089844 L 83.601562 1.089844 L 83.601562 84.074219 L 0.617188 84.074219 Z M 0.617188 1.089844 " fill-opacity="1" fill-rule="nonzero"/></g></g></g></g></g><g mask="url(#9495f3547d)"><g transform="matrix(1, 0, 0, 1, 187, 104)"><g clip-path="url(#3bf5305567)"><g clip-path="url(#3399d65744)"><g clip-path="url(#4619b57649)"><path fill="#8b0090" d="M 0.5 0.808594 L 78.734375 0.808594 L 78.734375 120.296875 L 0.5 120.296875 Z M 0.5 0.808594 " fill-opacity="1" fill-rule="nonzero"/></g></g></g></g></g><g mask="url(#8f29853d24)"><g transform="matrix(1, 0, 0, 1, 65, 122)"><g clip-path="url(#f2a9751bc4)"><g clip-path="url(#0689b90ef3)"><g clip-path="url(#df4dfa7870)"><path fill="#f6bd4f" d="M 0.398438 1.089844 L 83.382812 1.089844 L 83.382812 84.074219 L 0.398438 84.074219 Z M 0.398438 1.089844 " fill-opacity="1" fill-rule="nonzero"/></g></g></g></g></g></svg>